<?xml version="1.0" encoding="iso-8859-1"?>
<!-- Generator: Adobe Illustrator 19.0.0, SVG Export Plug-In . SVG Version: 6.00 Build 0)  -->
<svg version="1.1" id="Layer_1" xmlns="http://www.w3.org/2000/svg" xmlns:xlink="http://www.w3.org/1999/xlink" x="0px" y="0px"
	 viewBox="0 0 512 512" style="enable-background:new 0 0 512 512;" xml:space="preserve">
<path style="fill:#FF6465;" d="M256,0C114.615,0,0,114.615,0,256s114.615,256,256,256s256-114.615,256-256S397.385,0,256,0z"/>
<path style="opacity:0.1;enable-background:new    ;" d="M70.382,256c0-129.443,96.079-236.43,220.809-253.581
	C279.685,0.836,267.942,0,256,0C114.615,0,0,114.615,0,256s114.615,256,256,256c11.942,0,23.685-0.836,35.191-2.419
	C166.461,492.429,70.382,385.443,70.382,256z"/>
<path style="fill:#FFFFFF;" d="M409.474,283.1c0,8.378-6.791,15.169-15.169,15.169H117.692c-8.378,0-15.169-6.791-15.169-15.169
	v-54.2c0-8.378,6.791-15.169,15.169-15.169h276.614c8.378,0,15.169,6.791,15.169,15.169V283.1z"/>
<g>
</g>
<g>
</g>
<g>
</g>
<g>
</g>
<g>
</g>
<g>
</g>
<g>
</g>
<g>
</g>
<g>
</g>
<g>
</g>
<g>
</g>
<g>
</g>
<g>
</g>
<g>
</g>
<g>
</g>
</svg>
